<svg xmlns="http://www.w3.org/2000/svg" viewBox="0 0 24 24" width="24" height="24">
  <path fill="currentColor" d="M19.36,4.79C18.45,3.88,16.97,3.88,16.06,4.79L9.66,11.19C8.8,10.94,7.85,11.13,7.15,11.84L2.49,16.5C2.1,16.89,2.1,17.52,2.49,17.91L5.32,20.74C5.71,21.13,6.34,21.13,6.73,20.74L11.39,16.08C12.1,15.37,12.29,14.42,12.04,13.57L18.44,7.17C19.36,6.26,19.36,4.79,18.44,3.88L19.36,4.79Z M6.03,19.33L3.9,17.2L8.56,12.54C8.95,12.15,9.58,12.15,9.97,12.54L10.68,13.25L5.74,18.19C5.35,18.58,5.35,19.21,5.74,19.6L6.45,20.31L7.16,19.6C7.55,19.21,8.18,19.21,8.57,19.6L13.51,14.66L14.22,15.37C14.61,15.76,14.61,16.39,14.22,16.78L9.56,21.44L7.44,19.33L6.03,19.33Z"/>
</svg>