<svg xmlns="http://www.w3.org/2000/svg" fill="none" viewBox="0 0 19 19" width="1em" height="1em" stroke="currentColor"><path xmlns="http://www.w3.org/2000/svg" d="M12.026 6.359c-.33-.33-.495-.495-.557-.685a.835.835 0 0 1 0-.516c.062-.19.227-.355.557-.685l2.365-2.365a5 5 0 0 0-6.916 5.746c.1.407.149.611.14.74a.707.707 0 0 1-.092.326c-.059.115-.173.229-.4.456l-5.207 5.207a1.768 1.768 0 0 0 2.5 2.5l5.207-5.207c.227-.227.341-.341.456-.4a.707.707 0 0 1 .326-.092c.129-.009.333.04.74.14a5 5 0 0 0 5.746-6.916l-2.365 2.365c-.33.33-.495.495-.686.557a.833.833 0 0 1-.515 0c-.19-.062-.355-.227-.685-.557l-.614-.614Z" stroke-width="1.67" stroke-linecap="round" stroke-linejoin="round"/></svg>