<svg xmlns="http://www.w3.org/2000/svg" fill="none" viewBox="0 0 18 18" width="1em" height="1em" stroke="currentColor"><path xmlns="http://www.w3.org/2000/svg" d="M6 1.5H2.833c-.466 0-.7 0-.878.09a.833.833 0 0 0-.364.365c-.091.178-.091.412-.091.878V6c0 .467 0 .7.09.878.08.157.208.285.365.365.178.09.412.09.878.09H6c.467 0 .7 0 .878-.09a.833.833 0 0 0 .365-.365c.09-.178.09-.411.09-.878V2.833c0-.466 0-.7-.09-.878a.833.833 0 0 0-.365-.364C6.7 1.5 6.467 1.5 6 1.5ZM15.167 1.5H12c-.467 0-.7 0-.878.09a.833.833 0 0 0-.364.365c-.091.178-.091.412-.091.878V6c0 .467 0 .7.09.878.08.157.208.285.365.365.178.09.411.09.878.09h3.167c.466 0 .7 0 .878-.09a.833.833 0 0 0 .364-.365C16.5 6.7 16.5 6.467 16.5 6V2.833c0-.466 0-.7-.09-.878a.833.833 0 0 0-.365-.364c-.178-.091-.412-.091-.878-.091ZM15.167 10.667H12c-.467 0-.7 0-.878.09a.833.833 0 0 0-.364.365c-.091.178-.091.411-.091.878v3.167c0 .466 0 .7.09.878.08.157.208.284.365.364.178.091.411.091.878.091h3.167c.466 0 .7 0 .878-.09a.833.833 0 0 0 .364-.365c.091-.178.091-.412.091-.878V12c0-.467 0-.7-.09-.878a.833.833 0 0 0-.365-.364c-.178-.091-.412-.091-.878-.091ZM6 10.667H2.833c-.466 0-.7 0-.878.09a.833.833 0 0 0-.364.365C1.5 11.3 1.5 11.533 1.5 12v3.167c0 .466 0 .7.09.878.08.157.208.284.365.364.178.091.412.091.878.091H6c.467 0 .7 0 .878-.09a.833.833 0 0 0 .365-.365c.09-.178.09-.412.09-.878V12c0-.467 0-.7-.09-.878a.833.833 0 0 0-.365-.364c-.178-.091-.411-.091-.878-.091Z" stroke-width="1.67" stroke-linecap="round" stroke-linejoin="round"/></svg>