<svg xmlns="http://www.w3.org/2000/svg" width="27" height="27" viewBox="0 0 27 27" fill="none">
  <path d="M18.5625 4.5L24.1875 10.125M24.1875 4.5L18.5625 10.125M18 23.625V22.275C18 20.3848 18 19.4397 17.6321 18.7178C17.3086 18.0827 16.7923 17.5664 16.1572 17.2429C15.4353 16.875 14.4902 16.875 12.6 16.875H7.65C5.75982 16.875 4.81473 16.875 4.09278 17.2429C3.45774 17.5664 2.94143 18.0827 2.61785 18.7178C2.25 19.4397 2.25 20.3848 2.25 22.275V23.625M14.0625 8.4375C14.0625 10.6121 12.2996 12.375 10.125 12.375C7.95038 12.375 6.1875 10.6121 6.1875 8.4375C6.1875 6.26288 7.95038 4.5 10.125 4.5C12.2996 4.5 14.0625 6.26288 14.0625 8.4375Z" stroke="currentColor" stroke-width="1.5" stroke-linecap="round" stroke-linejoin="round"/>
</svg>
